<svg width="132" height="42" viewBox="0 0 132 42" fill="none" xmlns="http://www.w3.org/2000/svg">
<path d="M22.0246 33.1115C22.0605 29.4401 21.1297 26.4545 19.9457 26.4429C18.7616 26.4314 17.7727 29.3983 17.7368 33.0696C17.7009 36.7411 18.6317 39.7267 19.8157 39.7383C20.9998 39.7499 21.9888 36.783 22.0246 33.1115Z" fill="#FF6129"/>
<path d="M15.1577 32.2777C17.173 29.2086 18.0043 26.1937 17.0145 25.5438C16.0247 24.8939 13.5886 26.855 11.5734 29.9241C9.55809 32.9933 8.72681 36.0081 9.71657 36.6581C10.7064 37.308 13.1424 35.3469 15.1577 32.2777Z" fill="#FF6129"/>
<path d="M9.82346 27.8744C13.1782 26.3822 15.5075 24.2955 15.0263 23.2136C14.5451 22.1316 11.4355 22.4643 8.08074 23.9565C4.72605 25.4487 2.39667 27.5354 2.87791 28.6173C3.35914 29.6992 6.46877 29.3666 9.82346 27.8744Z" fill="#FF6129"/>
<path d="M14.6236 20.1796C14.8037 19.0093 12.008 17.6078 8.37917 17.0492C4.75028 16.4907 1.66249 16.9867 1.48236 18.157C1.30223 19.3273 4.09797 20.7287 7.72684 21.2873C11.3557 21.8459 14.4435 21.3499 14.6236 20.1796Z" fill="#FF6129"/>
<path d="M15.9263 17.3916C16.7105 16.5044 15.1159 13.814 12.3648 11.3826C9.61369 8.95118 6.74778 7.69937 5.96364 8.58662C5.1795 9.47389 6.77406 12.1642 9.52521 14.5956C12.2763 17.0271 15.1422 18.2788 15.9263 17.3916Z" fill="#FF6129"/>
<path d="M18.5212 15.7622C19.6606 15.4398 19.7738 12.3144 18.7741 8.78158C17.7744 5.24871 16.0404 2.64612 14.901 2.96853C13.7616 3.29093 13.6484 6.41624 14.6481 9.94915C15.6478 13.4819 17.3819 16.0846 18.5212 15.7622Z" fill="#FF6129"/>
<path d="M25.5668 10.0591C26.636 6.54661 26.5845 3.41967 25.4517 3.07486C24.3189 2.73004 22.5338 5.29793 21.4646 8.8104C20.3955 12.3229 20.447 15.4498 21.5798 15.7946C22.7126 16.1394 24.4977 13.5716 25.5668 10.0591Z" fill="#FF6129"/>
<path d="M30.6011 14.8052C33.3993 12.428 35.0461 9.76935 34.2794 8.86698C33.5128 7.96458 30.6229 9.16015 27.8249 11.5373C25.0267 13.9145 23.3799 16.5731 24.1465 17.4755C24.9132 18.3779 27.803 17.1824 30.6011 14.8052Z" fill="#FF6129"/>
<path d="M32.2658 21.5215C35.905 21.0347 38.7278 19.6886 38.5708 18.5149C38.4138 17.3413 35.3364 16.7846 31.6972 17.2714C28.0581 17.7583 25.2352 19.1043 25.3922 20.278C25.5493 21.4516 28.6266 22.0084 32.2658 21.5215Z" fill="#FF6129"/>
<path d="M36.9602 28.9528C37.4627 27.8806 35.1749 25.7484 31.8503 24.1903C28.5257 22.6322 25.4232 22.2384 24.9208 23.3105C24.4183 24.3828 26.706 26.515 30.0307 28.0731C33.3552 29.6311 36.4577 30.025 36.9602 28.9528Z" fill="#FF6129"/>
<path d="M29.9671 36.8639C30.9695 36.2336 30.1978 33.2029 28.2435 30.0947C26.2892 26.9864 23.8922 24.9777 22.8898 25.608C21.8874 26.2382 22.6591 29.2689 24.6134 32.3772C26.5678 35.4854 28.9647 37.4942 29.9671 36.8639Z" fill="#FF6129"/>
<path d="M59.016 31.196C56.72 31.196 54.8347 30.6547 53.36 29.572C51.8853 28.4707 51.092 26.9027 50.98 24.868H56.832C56.888 25.5587 57.0933 26.0627 57.448 26.38C57.8027 26.6973 58.26 26.856 58.82 26.856C59.324 26.856 59.7347 26.7347 60.052 26.492C60.388 26.2307 60.556 25.876 60.556 25.428C60.556 24.8493 60.2853 24.4013 59.744 24.084C59.2027 23.7667 58.3253 23.412 57.112 23.02C55.824 22.5907 54.7787 22.18 53.976 21.788C53.192 21.3773 52.5013 20.7893 51.904 20.024C51.3253 19.24 51.036 18.2227 51.036 16.972C51.036 15.7027 51.3533 14.62 51.988 13.724C52.6227 12.8093 53.5 12.1187 54.62 11.652C55.74 11.1853 57.0093 10.952 58.428 10.952C60.724 10.952 62.5533 11.4933 63.916 12.576C65.2973 13.64 66.0347 15.1427 66.128 17.084H60.164C60.1453 16.4867 59.9587 16.0387 59.604 15.74C59.268 15.4413 58.8293 15.292 58.288 15.292C57.8773 15.292 57.5413 15.4133 57.28 15.656C57.0187 15.8987 56.888 16.244 56.888 16.692C56.888 17.0653 57.028 17.392 57.308 17.672C57.6067 17.9333 57.9707 18.1667 58.4 18.372C58.8293 18.5587 59.464 18.8013 60.304 19.1C61.5547 19.5293 62.5813 19.9587 63.384 20.388C64.2053 20.7987 64.9053 21.3867 65.484 22.152C66.0813 22.8987 66.38 23.8507 66.38 25.008C66.38 26.184 66.0813 27.2387 65.484 28.172C64.9053 29.1053 64.056 29.8427 62.936 30.384C61.8347 30.9253 60.528 31.196 59.016 31.196ZM79.2633 15.152C81.0553 15.152 82.4739 15.7587 83.5193 16.972C84.5833 18.1667 85.1153 19.7907 85.1153 21.844V31H79.6273V22.572C79.6273 21.676 79.3939 20.976 78.9273 20.472C78.4606 19.9493 77.8353 19.688 77.0513 19.688C76.2299 19.688 75.5859 19.9493 75.1193 20.472C74.6526 20.976 74.4193 21.676 74.4193 22.572V31H68.9313V10.28H74.4193V17.532C74.9046 16.8227 75.5579 16.2533 76.3793 15.824C77.2193 15.376 78.1806 15.152 79.2633 15.152ZM90.8986 13.836C89.9279 13.836 89.1439 13.5747 88.5466 13.052C87.9679 12.5107 87.6786 11.8387 87.6786 11.036C87.6786 10.2147 87.9679 9.53333 88.5466 8.992C89.1439 8.45067 89.9279 8.18 90.8986 8.18C91.8506 8.18 92.6159 8.45067 93.1946 8.992C93.7919 9.53333 94.0906 10.2147 94.0906 11.036C94.0906 11.8387 93.7919 12.5107 93.1946 13.052C92.6159 13.5747 91.8506 13.836 90.8986 13.836ZM93.6146 15.292V31H88.1266V15.292H93.6146ZM107.016 15.152C108.827 15.152 110.264 15.7587 111.328 16.972C112.392 18.1667 112.924 19.7907 112.924 21.844V31H107.436V22.572C107.436 21.676 107.203 20.976 106.736 20.472C106.269 19.9493 105.644 19.688 104.86 19.688C104.039 19.688 103.395 19.9493 102.928 20.472C102.461 20.976 102.228 21.676 102.228 22.572V31H96.7399V15.292H102.228V17.532C102.713 16.8227 103.367 16.2533 104.188 15.824C105.009 15.376 105.952 15.152 107.016 15.152ZM130.943 22.964C130.943 23.3933 130.915 23.8227 130.859 24.252H120.471C120.527 25.1107 120.761 25.7547 121.171 26.184C121.601 26.5947 122.142 26.8 122.795 26.8C123.71 26.8 124.363 26.3893 124.755 25.568H130.607C130.365 26.6507 129.889 27.6213 129.179 28.48C128.489 29.32 127.611 29.9827 126.547 30.468C125.483 30.9533 124.307 31.196 123.019 31.196C121.47 31.196 120.089 30.8693 118.875 30.216C117.681 29.5627 116.738 28.6293 116.047 27.416C115.375 26.2027 115.039 24.7747 115.039 23.132C115.039 21.4893 115.375 20.0707 116.047 18.876C116.719 17.6627 117.653 16.7293 118.847 16.076C120.061 15.4227 121.451 15.096 123.019 15.096C124.569 15.096 125.941 15.4133 127.135 16.048C128.33 16.6827 129.263 17.5973 129.935 18.792C130.607 19.968 130.943 21.3587 130.943 22.964ZM125.343 21.592C125.343 20.92 125.119 20.3973 124.671 20.024C124.223 19.632 123.663 19.436 122.991 19.436C122.319 19.436 121.769 19.6227 121.339 19.996C120.91 20.3507 120.63 20.8827 120.499 21.592H125.343Z" fill="white"/>
</svg>
